<svg xmlns="http://www.w3.org/2000/svg" width="123.914" height="83" viewBox="0 0 123.914 83">
  <g id="laravel-logo" transform="translate(-760 -554)">
    <path id="Subtraction_1" data-name="Subtraction 1" d="M128.5,271a74.549,74.549,0,0,1-61.059-31.8,127.181,127.181,0,0,0,123.914-2.687,74.879,74.879,0,0,1-26.481,25.021A74.16,74.16,0,0,1,128.5,271Z" transform="translate(951.356 873.51) rotate(180)" fill="#060e16"/>
    <g id="Group_1" data-name="Group 1" transform="translate(0.91)">
      <path id="Polygon_1" data-name="Polygon 1" d="M21.5,0l6.88,13.171L43,15.661,32.632,26.291,34.788,41,21.5,34.4,8.212,41l2.156-14.709L0,15.661l14.62-2.49Z" transform="translate(800 554)" fill="#060e16"/>
      <path id="Polygon_3" data-name="Polygon 3" d="M8.5,0l2.72,5.461L17,6.493,12.9,10.9l.852,6.1L8.5,14.263,3.247,17,4.1,10.9,0,6.493,5.78,5.461Z" transform="matrix(0.966, 0.259, -0.259, 0.966, 859.49, 584.09)" fill="#060e16"/>
      <path id="Polygon_4" data-name="Polygon 4" d="M8.5,0l2.72,5.461L17,6.493,12.9,10.9l.852,6.1L8.5,14.263,3.247,17,4.1,10.9,0,6.493,5.78,5.461Z" transform="matrix(0.966, -0.259, 0.259, 0.966, 767.09, 588.49)" fill="#060e16"/>
    </g>
  </g>
</svg>
